<?xml version="1.0" standalone="no"?><!DOCTYPE svg PUBLIC "-//W3C//DTD SVG 1.1//EN" "http://www.w3.org/Graphics/SVG/1.1/DTD/svg11.dtd"><svg t="1576906907860" class="icon" viewBox="0 0 1024 1024" version="1.1" xmlns="http://www.w3.org/2000/svg" p-id="25268" xmlns:xlink="http://www.w3.org/1999/xlink" width="128" height="128"><defs><style type="text/css"></style></defs><path d="M353.549 259.062c10.032 9.504 21.121 17.029 29.702 21.385 5.148 2.64 9.24 3.96 11.748 3.96 6.337 0 25.346-9.9 41.318-25.213 10.56-10.165 19.933-22.705 23.233-36.17 3.168-12.937 0.264-26.666-9.373-36.17-6.601-6.601-15.709-10.56-25.741-10.56-12.277 0-22.97 5.94-29.57 15.049-4.489-6.205-10.957-10.956-18.482-13.465-13.068-4.092-27.457-0.66-36.962 8.845-9.636 9.505-12.541 23.233-9.241 36.17 3.302 13.332 12.675 25.872 23.368 36.169zM488.907 755.38c0 6.761-5.543 12.242-12.381 12.242H319.701c-6.838 0-12.381-5.481-12.381-12.242V324.574c0-6.761 5.543-12.242 12.381-12.242h156.825c6.838 0 12.381 5.481 12.381 12.242V755.38zM663.198 343.963c-5.933 0.249-11.239 1.614-14.446 6.075-0.236-0.324-0.317 1.387-0.574 1.08-0.254 0.31-0.5 0.627-0.734 0.953-2.295-3.147-5.593-5.551-9.425-6.812a18.953 18.953 0 0 0-4.928-0.831c-4.62 0.197-9.082 2.075-12.376 5.394-4.882 4.852-6.332 11.839-4.629 18.411 1.704 6.774 6.495 13.133 11.952 18.349 5.12 4.814 10.774 8.619 15.146 10.818 2.154 1.094 3.944 1.737 5.222 1.929 3.766-0.622 12.686-5.528 20.248-12.834 5.351-5.189 10.093-11.585 11.745-18.438 1.586-6.585 0.083-13.561-4.836-18.376-3.207-3.18-7.556-5.551-12.365-5.718z" fill="#F44444" p-id="25269"></path><path d="M675.561 349.473c-3.205-3.181-7.555-5.552-12.363-5.718-0.456 0.019-0.908 0.046-1.355 0.079 4.402 0.44 8.366 2.694 11.342 5.648 4.919 4.815 6.422 11.791 4.836 18.376-1.652 6.854-6.394 13.249-11.745 18.439-6.863 6.63-14.844 11.284-19.076 12.553 0.44 0.126 0.843 0.218 1.204 0.272 3.766-0.622 12.686-5.528 20.248-12.834 5.351-5.189 10.093-11.585 11.745-18.438 1.586-6.587 0.082-13.563-4.836-18.377z" fill="#9B2F2F" p-id="25270"></path><path d="M647.673 401.487c-1.753 0-4.142-0.761-7.097-2.262-5.174-2.602-10.909-6.695-15.728-11.226-6.675-6.38-11.049-13.14-12.663-19.561-2.004-7.729-0.027-15.508 5.292-20.794 5.42-5.462 13.778-7.501 21.278-5.184a21.898 21.898 0 0 1 8.664 5.336c3.913-4.044 9.24-6.324 15.021-6.346h0.082c3.478 0 6.909 0.849 9.93 2.456 0.617 0.329 1.04 0.878 1.223 1.5a2.492 2.492 0 0 1 1.868 0.516 20.594 20.594 0 0 1 1.781 1.577c5.314 5.203 7.378 12.959 5.504 20.735-1.973 8.184-7.851 15.201-12.435 19.646-8.409 8.122-18.522 13.591-22.695 13.606l-0.025 0.001z m-15.215-54.98c-4.252 0-8.44 1.645-11.444 4.672-4.057 4.031-5.541 10.016-3.983 16.022 1.389 5.524 5.28 11.455 11.259 17.169 4.401 4.138 9.843 8.028 14.542 10.392 2.51 1.274 4.173 1.724 4.842 1.724h0.006c1.984-0.007 10.921-4.167 19.238-12.199 4.105-3.981 9.358-10.205 11.05-17.225 1.458-6.048-0.096-12.031-4.154-16.004a15.746 15.746 0 0 0-1.363-1.208 2.49 2.49 0 0 1-0.852-1.256 2.497 2.497 0 0 1-1.495-0.272c-2.316-1.233-4.979-1.866-7.643-1.87-5.222 0.02-9.955 2.451-12.987 6.669a2.501 2.501 0 0 1-2.021 1.041h-0.009a2.5 2.5 0 0 1-2.02-1.026c-1.991-2.73-4.899-4.829-8.187-5.911a16.146 16.146 0 0 0-4.779-0.718z" p-id="25271"></path><path d="M625.738 350.728a2.5 2.5 0 0 1-1.251-4.667 19.612 19.612 0 0 1 1.758-0.897 2.5 2.5 0 0 1 2.047 4.561 14.45 14.45 0 0 0-1.307 0.667 2.478 2.478 0 0 1-1.247 0.336z" fill="#FFFFFF" p-id="25272"></path><path d="M629.025 349.272a2.5 2.5 0 0 1-0.764-4.881 19.918 19.918 0 0 1 5.238-0.934c1.366-0.08 2.545 1.011 2.604 2.391a2.5 2.5 0 0 1-2.392 2.604 14.9 14.9 0 0 0-3.922 0.7c-0.252 0.082-0.51 0.12-0.764 0.12z" fill="#FFFFFF" p-id="25273"></path><path d="M296.098 312.181v202.537c1.616 0.256 3.276 0.398 4.973 0.398 15.846 0 28.692-11.647 28.692-26.014 0-1.232-0.101-2.442-0.284-3.628 0.183-1.059 0.284-2.152 0.284-3.273v-4.53h0.255V402.45c0-1.121 0.091-2.214 0.257-3.273a26.147 26.147 0 0 1-0.257-3.628c0-14.367 11.647-26.014 26.014-26.014 10.559 0 19.642 6.295 23.719 15.333v91.363c0 1.121 0.1 2.214 0.284 3.273a23.763 23.763 0 0 0-0.284 3.628c0 14.367 12.846 26.014 28.692 26.014s28.692-11.647 28.692-26.014c0-1.232-0.101-2.442-0.284-3.628 0.104-0.599 0.173-1.212 0.22-1.833h0.063V405.04c0-1.121 0.091-2.214 0.257-3.273a26.147 26.147 0 0 1-0.257-3.628c0-14.367 11.647-26.014 26.014-26.014 4.53 0 8.788 1.16 12.497 3.196v-53.015c0-4.961-2.957-9.224-7.2-11.146" fill="#F4DD50" p-id="25274"></path><path d="M301.071 520.116c-1.891 0-3.827-0.154-5.755-0.46a5 5 0 0 1-4.218-4.938V312.181a5 5 0 0 1 10 0v197.935c13.052-0.013 23.665-9.435 23.665-21.014 0-0.931-0.076-1.895-0.226-2.865a4.973 4.973 0 0 1 0.015-1.615c0.14-0.81 0.211-1.625 0.211-2.421v-4.53c0-0.552 0.089-1.083 0.255-1.58V402.45c0-1.097 0.071-2.206 0.212-3.307a31.006 31.006 0 0 1-0.212-3.594c0-17.101 13.913-31.014 31.014-31.014 12.169 0 23.269 7.174 28.277 18.277 0.292 0.646 0.442 1.347 0.442 2.056v91.363c0 0.801 0.071 1.614 0.21 2.417 0.093 0.536 0.098 1.083 0.015 1.619a18.82 18.82 0 0 0-0.226 2.865c0 11.587 10.628 21.014 23.692 21.014s23.692-9.427 23.692-21.014c0-0.931-0.076-1.896-0.226-2.867a4.986 4.986 0 0 1 0.016-1.617c0.069-0.397 0.122-0.839 0.16-1.354 0.011-0.141 0.027-0.279 0.049-0.416V405.04c0-1.095 0.071-2.205 0.212-3.307a31.058 31.058 0 0 1-0.212-3.594c0-17.101 13.913-31.014 31.014-31.014 2.533 0 5.053 0.312 7.497 0.92v-45.739a7.255 7.255 0 0 0-4.263-6.591 5.001 5.001 0 0 1 4.126-9.11c6.158 2.79 10.137 8.952 10.137 15.701v53.015a5.001 5.001 0 0 1-7.406 4.384 21.016 21.016 0 0 0-10.091-2.579c-11.587 0-21.014 9.427-21.014 21.014 0 0.957 0.07 1.944 0.209 2.935 0.068 0.487 0.064 0.982-0.012 1.468-0.13 0.834-0.197 1.674-0.197 2.499v72.631c0 0.429-0.054 0.845-0.156 1.243-0.022 0.211-0.047 0.417-0.074 0.62 0.153 1.21 0.231 2.417 0.231 3.598 0 17.101-15.114 31.014-33.692 31.014s-33.692-13.913-33.692-31.014c0-1.18 0.077-2.384 0.23-3.59a24.096 24.096 0 0 1-0.23-3.311v-90.227c-3.576-7-10.815-11.469-18.719-11.469-11.587 0-21.014 9.427-21.014 21.014 0 0.959 0.07 1.946 0.208 2.935 0.068 0.487 0.064 0.982-0.012 1.468-0.13 0.832-0.196 1.672-0.196 2.499v75.221c0 0.552-0.089 1.083-0.255 1.581v2.95c0 1.096-0.077 2.206-0.23 3.31 0.153 1.207 0.23 2.411 0.23 3.591 0.001 17.097-15.113 31.01-33.691 31.01z" p-id="25275"></path><path d="M464.284 768.541H307.459c-9.584 0-17.381-7.734-17.381-17.242V320.493c0-9.507 7.797-17.242 17.381-17.242h156.825c9.584 0 17.381 7.735 17.381 17.242v430.806c0 9.508-7.797 17.242-17.381 17.242z m-156.825-455.29c-4.07 0-7.381 3.249-7.381 7.242v430.806c0 3.993 3.311 7.242 7.381 7.242h156.825c4.07 0 7.381-3.249 7.381-7.242V320.493c0-3.993-3.311-7.242-7.381-7.242H307.459z" p-id="25276"></path><path d="M596.023 858.61c0 7.217-8.541 13.067-15.302 13.067H221.627c-6.761 0-21.423-5.85-21.423-13.067L179.8 769.317c0-7.217 5.481-13.067 12.242-13.067h412.142c6.761 0 12.242 5.85 12.242 13.067l-20.403 89.293z" fill="#F44444" p-id="25277"></path><path d="M568.479 876.677H209.385c-7.526 0-25.73-6.098-26.404-17.418l-20.296-88.828a5.017 5.017 0 0 1-0.125-1.113c0-9.962 7.734-18.067 17.242-18.067h412.143c9.507 0 17.241 8.105 17.241 18.067 0 0.375-0.042 0.748-0.126 1.114l-20.291 88.803c-0.436 9.87-11.095 17.442-20.29 17.442zM172.573 768.814l20.264 88.683c0.083 0.365 0.125 0.738 0.125 1.113 0 2.638 10.145 8.066 16.423 8.066h359.094c4.403 0 10.303-3.988 10.303-8.066 0-0.375 0.042-0.748 0.126-1.114l20.264-88.682c-0.234-4.215-3.387-7.564-7.228-7.564H179.801c-3.841 0-6.994 3.35-7.228 7.564z" p-id="25278"></path><path d="M284.876 858.239h-52.512c-6.088 0-20.773-5.033-21.448-14.379l-6.474-28.33a5 5 0 0 1 9.749-2.228l6.575 28.775c0.073 0.321 0.115 0.648 0.124 0.977 0.783 1.865 7.546 5.186 11.474 5.186h52.512a5 5 0 1 1 0 9.999zM337.924 858.239H307.32a5 5 0 1 1 0-10h30.604a5 5 0 1 1 0 10z" fill="#FFFFFF" p-id="25279"></path><path d="M384.275 289.408c-3.472 0-8.192-1.518-14.029-4.511-10.155-5.155-21.409-13.252-30.859-22.205-9.136-8.798-20.823-22.608-24.781-38.599-3.888-15.242 0.065-30.556 10.583-40.931 10.722-10.722 27.204-14.679 41.967-10.057 6.456 2.152 12.301 5.8 16.973 10.518 7.735-7.901 18.223-12.33 29.584-12.33 11.125 0 21.522 4.271 29.277 12.024a5 5 0 1 1-7.071 7.071c-5.865-5.866-13.751-9.096-22.206-9.096-10.241 0-19.543 4.732-25.521 12.982a4.999 4.999 0 0 1-4.049 2.066h-0.001a4.998 4.998 0 0 1-4.049-2.069c-3.882-5.366-9.569-9.504-16.013-11.653-11.167-3.493-23.699-0.508-31.845 7.638-7.984 7.875-10.94 19.604-7.932 31.398 2.688 10.86 10.289 22.537 21.99 33.804 8.621 8.167 19.285 15.852 28.497 20.528 4.925 2.525 8.185 3.418 9.484 3.418 3.891 0 21.464-8.105 37.857-23.823 8.095-7.792 18.462-19.98 21.837-33.751 1.643-6.708 1.423-13.478-0.637-19.575a5 5 0 1 1 9.474-3.2c2.669 7.9 2.972 16.599 0.876 25.155-3.946 16.098-15.567 29.867-24.623 38.583-16.603 15.925-36.559 26.615-44.783 26.615zM384.104 142.644a5 5 0 0 1-5-5V114.18a5 5 0 0 1 10 0v23.464a5 5 0 0 1-5 5zM503.321 225.766h-0.073l-23.461-0.338a5.001 5.001 0 0 1-4.928-5.071c0.04-2.761 2.321-4.942 5.071-4.928l23.461 0.338a5 5 0 1 1-0.07 9.999zM279.922 225.766h-0.073l-23.461-0.338a5.001 5.001 0 0 1-4.928-5.071c0.04-2.761 2.316-4.942 5.071-4.928l23.461 0.338a5 5 0 1 1-0.07 9.999zM448.408 162.582a4.999 4.999 0 0 1-3.171-8.869l21.01-17.202a5 5 0 1 1 6.335 7.737l-21.01 17.202a4.977 4.977 0 0 1-3.164 1.132zM308.774 162.582a4.981 4.981 0 0 1-3.165-1.131l-21.01-17.202a5 5 0 1 1 6.335-7.737l21.01 17.202a4.999 4.999 0 0 1-3.17 8.868z" p-id="25280"></path><path d="M591.455 700.043h-0.006a61.604 61.604 0 0 1-13.088-1.416c-15.979-3.484-29.646-12.982-38.48-26.746-8.836-13.764-11.783-30.145-8.298-46.125 0.084-0.387 0.175-0.762 0.268-1.133 0.05-0.287 0.104-0.57 0.166-0.854l45.097-206.81c2.378-10.905 12.2-18.82 23.354-18.82 1.711 0 3.429 0.186 5.105 0.551l73.287 15.98c6.238 1.36 11.576 5.069 15.027 10.445s4.602 11.772 3.24 18.013L652.03 649.933a23.841 23.841 0 0 1-1.383 4.32c-7.026 27.048-31.123 45.79-59.192 45.79z m-30.057-70.205c-0.069 0.463-0.16 0.923-0.271 1.378l-0.127 0.504c-0.037 0.146-0.076 0.292-0.109 0.44-1.774 8.139-0.271 16.493 4.235 23.514s11.478 11.865 19.627 13.643c2.211 0.481 4.465 0.727 6.699 0.727h0.003c14.6 0 27.09-9.962 30.375-24.226a14.961 14.961 0 0 1 1.058-3.047l43.631-200.085-61.392-13.387-43.729 200.539z" fill="#FFFFFF" p-id="25281"></path><path d="M542.706 878.098c-1.054 0-2.124-0.111-3.195-0.344-8.096-1.757-13.235-9.744-11.479-17.84L566.9 680.79c1.757-8.097 9.747-13.233 17.84-11.479 8.096 1.757 13.235 9.744 11.479 17.84l-38.868 179.124c-1.525 7.025-7.739 11.823-14.645 11.823z" fill="#FFFFFF" p-id="25282"></path><path d="M577.093 885.596c-1.06 0-2.134-0.112-3.21-0.348l-73.759-16.083c-8.094-1.765-13.225-9.757-11.46-17.851 1.766-8.095 9.759-13.227 17.852-11.46l73.758 16.083c8.095 1.765 13.226 9.757 11.46 17.851-1.53 7.018-7.742 11.808-14.641 11.808z" fill="#FFFFFF" p-id="25283"></path><path d="M589.369 548.968c-8.808-2.36-17.972-0.459-25.604 2.501l-16.672 76.455c-0.049 0.225-0.08 0.449-0.112 0.673-0.109 0.44-0.226 0.876-0.324 1.322-5.44 24.947 10.374 49.58 35.32 55.02 24.767 5.401 49.216-10.152 54.889-34.788a8.898 8.898 0 0 0 0.928-2.448l13.792-63.251c-21.147-3.569-41.501-29.934-62.217-35.484z" fill="#F4DD50" p-id="25284"></path><path d="M591.456 692.925h-0.005c-3.664 0-7.351-0.399-10.958-1.187-13.369-2.914-24.804-10.861-32.196-22.377s-9.858-25.222-6.942-38.592c0.079-0.364 0.168-0.72 0.258-1.074l0.04-0.158a12.2 12.2 0 0 1 0.136-0.755l45.096-206.809c1.384-6.345 7.097-10.95 13.584-10.95 0.994 0 1.995 0.108 2.973 0.321l73.288 15.981c3.63 0.791 6.735 2.949 8.743 6.077s2.677 6.849 1.885 10.48l-45.096 206.801a13.884 13.884 0 0 1-1.09 3.137c-5.609 23.058-25.962 39.105-49.716 39.105z m9.012-271.902a3.932 3.932 0 0 0-3.814 3.081L551.56 630.905c-0.019 0.089-0.029 0.187-0.043 0.283-0.023 0.162-0.06 0.359-0.099 0.52l-0.111 0.441c-0.063 0.25-0.127 0.5-0.183 0.755-2.346 10.757-0.362 21.787 5.588 31.055 5.949 9.268 15.152 15.663 25.912 18.01 2.908 0.634 5.879 0.956 8.828 0.956h0.004c19.286 0 35.783-13.15 40.12-31.98a4.93 4.93 0 0 1 0.507-1.316c0.188-0.337 0.325-0.699 0.408-1.078l45.096-206.798c0.223-1.021 0.034-2.067-0.53-2.947s-1.438-1.486-2.458-1.708l-73.289-15.981a3.84 3.84 0 0 0-0.842-0.094z" p-id="25285"></path><path d="M542.696 870.979a5.001 5.001 0 0 1-4.891-6.061l38.868-179.123a5.001 5.001 0 0 1 9.773 2.121l-38.868 179.123a5.003 5.003 0 0 1-4.882 3.94z" p-id="25286"></path><path d="M577.083 878.478c-0.354 0-0.711-0.037-1.07-0.116l-73.758-16.083a5 5 0 0 1-3.82-5.95 4.995 4.995 0 0 1 5.951-3.819l73.758 16.083a4.998 4.998 0 0 1 3.819 5.95 5.002 5.002 0 0 1-4.88 3.935z" p-id="25287"></path><path d="M740.811 538.138c8.723-2.657 17.947-1.069 25.674 1.631l19.255 75.845c0.057 0.223 0.095 0.446 0.134 0.669 0.124 0.436 0.256 0.868 0.368 1.311 6.283 24.748-8.686 49.903-33.433 56.186-24.57 6.238-49.532-8.477-56.038-32.906a8.912 8.912 0 0 1-1.011-2.416l-15.93-62.747c21.017-4.284 40.465-31.324 60.981-37.573z" fill="#F4DD50" p-id="25288"></path><path d="M741.525 682.205c-23.443 0-43.85-15.888-49.625-38.636a32.21 32.21 0 0 1-0.263-1.14l-0.021-0.093a12.815 12.815 0 0 1-0.219-0.745l-52.085-205.155c-1.887-7.436 2.626-15.021 10.061-16.908l72.703-18.458a13.899 13.899 0 0 1 16.909 10.061l52.085 205.153c0.273 1.073 0.417 2.179 0.427 3.295 6.146 26.933-10.486 54.224-37.334 61.04a51.372 51.372 0 0 1-12.638 1.586z m-16.017-271.564c-0.323 0-0.65 0.042-0.971 0.123l-72.702 18.458a3.916 3.916 0 0 0-2.828 4.755l52.084 205.153c0.024 0.094 0.06 0.188 0.092 0.282 0.057 0.168 0.104 0.34 0.144 0.514l0.083 0.381c0.058 0.265 0.114 0.529 0.182 0.793 4.651 18.318 21.071 31.106 39.934 31.106h0.001c3.411 0 6.835-0.43 10.177-1.278 21.775-5.528 35.199-27.793 29.926-49.632a5.048 5.048 0 0 1-0.135-1.401 3.895 3.895 0 0 0-0.114-1.143l-52.087-205.159a3.907 3.907 0 0 0-3.786-2.952z" p-id="25289"></path><path d="M798.212 858.384a5 5 0 0 1-4.841-3.766l-45.284-177.611a5 5 0 1 1 9.689-2.471l45.284 177.611a5 5 0 0 1-4.848 6.237z" p-id="25290"></path><path d="M759.155 868.299a5 5 0 0 1-1.227-9.848l73.17-18.576a5 5 0 0 1 2.461 9.693l-73.17 18.576a4.992 4.992 0 0 1-1.234 0.155z" p-id="25291"></path></svg>