<?xml version="1.0" standalone="no"?><!DOCTYPE svg PUBLIC "-//W3C//DTD SVG 1.1//EN" "http://www.w3.org/Graphics/SVG/1.1/DTD/svg11.dtd"><svg t="1576904211115" class="icon" viewBox="0 0 1024 1024" version="1.1" xmlns="http://www.w3.org/2000/svg" p-id="14458" xmlns:xlink="http://www.w3.org/1999/xlink" width="16" height="16"><defs><style type="text/css"></style></defs><path d="M819.27979399 290.68959234H655.356511a193.951272 193.951272 0 0 0 118.14290701-153.290422A32.19394201 32.19394201 0 0 0 756.171791 105.10677634a35.639777 35.639777 0 0 0-19.690484-4.233454 36.132039 36.132039 0 0 1 14.76786301 4.233454 32.19394201 32.19394201 0 0 1 16.83536398 31.997037 194.049724 194.049724 0 0 1-189.02864999 168.25518999h8.368456a188.93019799 188.93019799 0 0 0 45.780376-7.18702699H811.600505a118.142907 118.142907 0 0 1 118.142907 118.142906V863.19042634a117.45374 117.45374 0 0 1-31.20941801 79.549558 117.552192 117.552192 0 0 0 39.38096901-87.130394V408.83249834a118.142907 118.142907 0 0 0-118.63516901-118.142906zM424.485581 298.27042834a183.613767 183.613767 0 0 1-21.36417501-7.580836H211.828349a118.142907 118.142907 0 0 0-87.031941 38.593349A118.142907 118.142907 0 0 1 204.14906 298.27042834z" fill="#1A1F1C" p-id="14459"></path><path d="M929.743412 416.41333533a118.142907 118.142907 0 0 0-118.142907-118.14290699H633.204716a188.93019799 188.93019799 0 0 1-45.780376 7.18702699V981.33333334H811.600505a118.93052599 118.93052599 0 0 0 118.142907-118.142907z m-229.78795401 28.74810701l36.72275401-2.362858 16.44155399-14.767863 16.44155501 14.767863 36.72275299 2.362858-25.99143899 11.32202899 25.99143899 1.67369101-22.25024699 9.845242 1.969048 5.119526-5.513335-1.279882 5.513335 14.275602-32.88310901-7.679289-32.784656 7.679289 5.611788-14.472506-5.41488299 1.279881 1.969048-5.11952599-22.3487-9.84524201 25.79453499-1.47678599zM734.118449 745.04752034l19.00131701-51.19526 7.58083699 20.379652 7.580836-20.379652 19.09977 51.19526 42.531447 8.17155101-30.815609 39.38096899 7.28548 56.216333-16.736912-11.61738599 1.57523901 11.61738599-30.52025101-21.265723-30.421799 21.85643701 1.476787-11.61738501-16.63846 11.61738501 7.28548-56.21633301-30.81560899-39.380969zM440.43487399 302.01162034c-5.316431-1.082977-10.63286201-2.36285799-15.85084-3.93809699H204.14906a118.83207401 118.83207401 0 0 0-118.14290599 118.14290699V863.19042634a118.142907 118.142907 0 0 0 118.14290599 118.142907h236.28581401zM213.994303 433.24869935l56.413238-4.725716 25.20382-29.53572701 25.20382 29.53572701 56.413238 4.725716-34.95061 19.690484 34.95061 2.95357299-35.049063 19.690484 3.938097 13.192625-7.383932-2.26440599 7.383932 25.105368-50.506092-15.45703001-50.11228301 15.949292 7.87619301-25.105368-7.87619301 2.067501 3.93809701-13.192624-35.049063-19.690485 34.95060999-2.953572zM261.743727 745.04752034l22.250248-51.19526 6.49786 14.866316 6.49786-14.866316L319.33839401 745.04752034l49.91537799 8.17155101-36.132039 39.38096899 8.860718 56.80704701-14.27560101-8.466908 1.27988201 8.466908-38.19954-22.64405701-38.396445 22.64405701 1.279882-8.466908-14.275601 8.466908 8.56536-56.21633301-36.132039-39.380969z" fill="#73A353" p-id="14460"></path><path d="M587.42434 305.45745533h-8.368456a194.049724 194.049724 0 0 0 189.02864999-168.25518899A32.19394201 32.19394201 0 0 0 751.24916999 105.10677634a36.132039 36.132039 0 0 0-52.67204599 25.59763A124.739219 124.739219 0 0 1 676.720687 183.86871434a122.67171799 122.67171799 0 0 1-35.147515 32.88310899 193.852819 193.852819 0 0 1-173.177811 88.60718A188.142579 188.142579 0 0 1 440.43487399 302.01162034v679.321713h146.98946601zM483.55703401 228.76301834a121.490289 121.490289 0 0 0 34.95060999-6.596312 124.54231401 124.54231401 0 0 1-26.483701-203.304252 35.04906199 35.04906199 0 0 0-5.907146-57.29931A32.19394201 32.19394201 0 0 0 472.23500599-42.57185665a34.852157 34.852157 0 0 0-25.89298699 8.86071799A191.78531799 191.78531799 0 0 0 401.053905 26.34483834a195.32960599 195.32960599 0 0 0 5.414883 179.084956 124.44386199 124.44386199 0 0 0 77.08824599 23.333224z" fill="#E18256" p-id="14461"></path><path d="M335.779949 15.90888134a31.800132 31.800132 0 0 1 31.504775 27.862036 31.70168 31.70168 0 0 0-31.504775-35.442872 41.44846999 41.44846999 0 0 0-38.790254 26.385249 192.376033 192.376033 0 0 0-12.897268 75.513008v1.476786a191.391509 191.391509 0 0 1 12.70036301-68.916695 41.44846999 41.44846999 0 0 1 38.98715899-26.877512zM483.55703401 236.34385535A125.723743 125.723743 0 0 0 603.078275 114.95201834v-5.119526a126.0191 126.0191 0 0 1-81.71551 111.546594 124.54231401 124.54231401 0 0 1-24.416201-202.516632 35.04906199 35.04906199 0 0 0-5.907145-57.29931A33.473824 33.473824 0 0 0 472.23500599-42.57185665a32.19394201 32.19394201 0 0 1 13.88179101 4.03654899 35.04906199 35.04906199 0 0 1 5.907146 57.29931 124.54231401 124.54231401 0 0 0 26.483701 203.304251 121.490289 121.490289 0 0 1-34.95060999 6.596313A124.64076601 124.64076601 0 0 1 353.993647 108.06034934v3.741192a124.54231401 124.54231401 0 0 0 129.56338701 124.54231401zM621.390425 15.90888134a41.05466 41.05466 0 0 1 38.29799299 25.892987 193.754367 193.754367 0 0 1 12.89726701 66.061576v-3.64274a192.27758 192.27758 0 0 0-12.89726701-69.999672 41.05466 41.05466 0 0 0-38.29799299-25.892987 32.09548999 32.09548999 0 0 0-31.898584 35.541324 32.29239401 32.29239401 0 0 1 31.898584-27.960488z" fill="#1A1F1C" p-id="14462"></path><path d="M440.43487399 302.01162034a188.142579 188.142579 0 0 0 28.157392 3.741192 194.837343 194.837343 0 0 0 204.190324-193.951271v-3.938097a193.754367 193.754367 0 0 0-12.89726699-66.061576 41.05466 41.05466 0 0 0-38.29799301-25.892987 32.29239401 32.29239401 0 0 0-31.898584 27.960488 30.126441 30.126441 0 0 0 2.55976301 16.63846 125.231481 125.231481 0 0 1 10.829766 49.226211v5.119526a124.64076601 124.64076601 0 0 1-249.28153301-2.855121v-3.741192a124.050052 124.050052 0 0 1 10.82976701-47.552519 31.30787001 31.30787001 0 0 0 2.46131-16.736912 31.800132 31.800132 0 0 0-31.504775-27.862036 41.44846999 41.44846999 0 0 0-38.79025401 26.38524899 191.391509 191.391509 0 0 0-12.70036299 69.40895801v6.10404999a195.92032 195.92032 0 0 0 119.02897899 172.68554901 183.613767 183.613767 0 0 0 21.36417501 7.580836c5.21797799 1.575239 10.534409 2.85512 15.94929301 3.741192z" fill="#E3BC3D" p-id="14463"></path><path d="M296.00516999 421.53286134l25.20382002 29.831084 21.462628 1.772143 34.95060999-19.88738899-56.41323801-4.725716-25.20382-29.831084-25.20382 29.831084-56.41323799 4.725716 34.95060999 19.88738899 21.462628-1.772143 25.20382-29.831084zM339.127331 487.00372134l7.28547901 2.26440601-3.839644-13.19262402-5.71024101 3.24892901 2.264406 7.679289zM249.437175 476.07550333l-3.93809699 13.19262402 7.38393099-2.26440601 2.264406-7.679289-5.71024-3.24892899z" fill="#1A1F1C" p-id="14464"></path><path d="M249.437175 476.07550333l5.71024 3.24892901-2.264406 7.679289-7.38393099 25.105368 50.506092-15.45702999 50.40764 15.45702999-7.28547901-25.105368-2.264406-7.679289 5.71024101-3.24892899 35.04906199-19.98584201-34.95060999-2.953573-21.462628-1.772143-25.20382-29.831084-25.20382 29.831084-21.462628 1.772143-34.95061001 2.953573 35.049063 19.98584199z" fill="#E18256" p-id="14465"></path><path d="M784.033827 467.80549933l22.3487-9.64833699-26.089892-1.67369101-0.590715 0.196904 4.331907 11.12512402zM725.749993 471.64514434l-5.41488301 14.275601 32.784656-7.679289 32.88310901 7.679289-5.513335-14.275601-27.36977399-6.399408-27.36977301 6.399408zM722.30415801 467.80549933l4.23345399-11.12512398-0.49226201-0.196904-26.089892 1.67369099 22.34870002 9.64833701z" fill="#1A1F1C" p-id="14466"></path><path d="M722.30415801 467.80549933l-1.96904802 5.11952601 5.41488301-1.279881 27.36977299-6.399408 27.36977401 6.399408 5.513335 1.279881-1.969048-5.11952599-4.331907-11.12512402 0.590715-0.19690398 26.089892-11.32202901-36.821206-2.362858-16.44155501-14.767863-16.44155399 14.767863-36.72275401 2.362858 26.089892 11.32202899 0.49226201 0.196904-4.23345401 11.125124z" fill="#E18256" p-id="14467"></path><path d="M239.395028 849.40708735l14.275601-8.46690802 7.285479-47.74942499-36.132039-39.774778 49.915378-8.171551 15.752388-36.328944-6.49786-14.866316-22.250248 51.19526-49.915378 8.171551 36.132039 39.774778-8.56536 56.21633299zM290.491835 826.76303034l38.19953901 22.64405701-1.27988101-8.466908-30.421798-18.11524601-6.49786 3.938097z" fill="#1A1F1C" p-id="14468"></path><path d="M224.824069 753.41597634l36.132039 39.774778-7.285479 47.74942501-1.279882 8.466908 38.101088-22.64405701 6.49786-3.938097 30.421798 18.11524601 14.27560099 8.466908-8.56536099-56.21633301 36.132039-39.774778-49.91537801-8.171551-22.34869899-51.19526-6.49786 14.866316-15.752388 36.328944-49.915378 8.171551z" fill="#E18256" p-id="14469"></path><path d="M814.750983 753.41597634l-30.81560899 39.774778 5.71024099 44.598948 16.736912 11.61738501-7.28548-56.21633301 30.815609-39.774778-42.531447-8.171551-19.09977-51.19526-7.580836 20.379652 11.518933 30.815608 42.531447 8.171551zM731.755591 837.78970234l-1.476787 11.61738501 30.421799-21.26572301-7.58083699-5.316431-21.36417501 14.964769z" fill="#1A1F1C" p-id="14470"></path><path d="M715.117131 849.40708735l16.63846-11.61738501 21.36417501-14.964769 7.58083699 5.316431 30.52025101 21.26572299-1.57523901-11.61738499-5.71024099-44.598948 30.81560899-39.774778-42.531447-8.171551-11.518933-30.815608-7.58083699-20.379652-19.00131701 51.19526-42.53144701 8.171551 30.81560901 39.774778-7.28548 56.21633299z" fill="#E18256" p-id="14471"></path></svg>