<?xml version="1.0" standalone="no"?><!DOCTYPE svg PUBLIC "-//W3C//DTD SVG 1.1//EN" "http://www.w3.org/Graphics/SVG/1.1/DTD/svg11.dtd"><svg class="icon" width="48px" height="42.89px" viewBox="0 0 1146 1024" version="1.1" xmlns="http://www.w3.org/2000/svg"><path fill="#E74C3C" d="M758.294925 982.199403c30.613015-26.501731 45.728478-58.322149 45.346388-95.415403v-2.934448c38.743881-5.303403 74.36991-19.624119 106.923941-42.992716l0.305671-0.305672c49.686925-36.741731 74.033672-81.018269 73.024956-132.814328a162.922985 162.922985 0 0 0-4.126568-36.237373l14.412418-9.399403c0.59606-0.534925 1.192119-1.008716 1.772896-1.482508 32.798567-22.940657 49.213134-59.651821 49.182567-110.164059 1.161552-28.167642-8.742209-56.839642-29.726567-85.985433a278.344597 278.344597 0 0 0 28.855403-19.135045c4.783761-3.362388 10.285851-7.687642 16.490985-12.960478 2.26197-1.956299 4.325254-4.126567 6.189851-6.495522a83.75403 83.75403 0 0 0 1.482507-2.063284c48.72406-44.582209 72.581731-88.889313 71.557731-132.799044 2.552358-45.468657-20.90794-89.546507-70.380895-132.26412l-0.305672-0.275104c-80.972418-72.505313-183.754507-86.841313-308.361552-42.992717a738.624955 738.624955 0 0 0-8.543522-9.139582v0.305672C689.029731 40.547343 619.321313 7.840478 543.285493 8.558806c-53.691224-1.45194-114.764418 25.630567-183.189015 81.293373l-0.305672 0.305672c-40.547343 31.31606-74.507463 79.795582-101.895642 145.484418-16.521552-8.818627-33.104239-12.838209-49.778627-12.07403-60.905075-2.399522-109.598567 33.608597-146.095761 108.100776l0.305672-0.305672C36.665313 382.486925 19.975642 438.745791 12.272716 500.124657v0.275104c-7.458388 62.402866-0.59606 125.233672 20.617553 188.492418l0.305671 0.305672c22.069493 68.928955 75.195224 107.09206 159.331344 114.565731 8.604657 16.888358 19.807522 34.571463 33.578029 53.018746l0.290388 0.305672c47.409672 67.629851 127.113552 92.083582 239.142209 73.330627a333.487761 333.487761 0 0 0 28.289911 28.28991v0.305672c46.752478 41.938149 95.338985 62.25003 145.790089 60.966209h0.580777c51.643224-1.008716 90.815045-13.388418 117.515462-37.123821a2.216119 2.216119 0 0 1 0.580776-0.657194z m-108.085492-315.712955c0.580776 0.336239 1.161552 0.733612 1.757612 1.176836 3.943164 2.338388 7.871045 4.722627 11.783642 7.061015a309.859343 309.859343 0 0 0 92.756059 37.398925c23.689552 5.33397 48.036299 7.97803 73.040239 7.947463a257.895164 257.895164 0 0 0 73.040239-10.301135c-1.681194 24.988657-14.947343 46.691343-39.767881 65.092776l-0.305671 0.305672c-27.800836 19.853373-59.00991 29.772418-93.657791 29.741851-41.082269-0.015284-79.382925-10.83606-114.871403-32.385911l0.305671 0.275105c-36.084537-22.451582-54.638806-51.398687-55.662806-86.887164-0.015284-14.229015 4.493373-24.820537 13.541254-31.789851h0.59606c3.958448-2.537075 8.375403-4.52394 13.250865-5.899463 7.38197 6.281552 15.451701 12.379701 24.193911 18.263881z m113.083224-173.759045c1.635343 0.489075 3.209552 0.871164 4.722627 1.176836l12.960477 2.338388-2.063283-0.580776c32.156657 7.657075 64.573134 10.408119 97.188298 8.23785h0.290388a343.177552 343.177552 0 0 0 58.627821-8.543522c17.820657 19.211463 27.43403 37.567045 28.870687 55.066746-0.030567 19.196179-5.028299 33.807284-15.023762 43.894448l-0.901731 0.886448c-0.305672 0.183403-0.580776 0.38209-0.886448 0.59606-5.456239 3.515224-10.560955 6.969313-15.314149 10.316418h-0.290388c-5.395104 3.820896-10.408119 7.274985-15.023761 10.301134a12.92991 12.92991 0 0 0-1.467224 0.886448 36.26794 36.26794 0 0 0-6.770627 3.530507 40.119403 40.119403 0 0 0-4.722627 1.757612c-22.894806 10.83606-47.53194 16.246448-73.926686 16.200597a251.904 251.904 0 0 1-55.372418-6.159284 230.323582 230.323582 0 0 1-68.623284-27.403462l-11.783642-7.076299a142.855642 142.855642 0 0 1-26.501731-23.552v0.305672c-14.702806-17.499701-22.054209-37.414209-22.084776-59.804657 0.015284-15.115463 5.12-26.303045 15.329433-33.562746v-0.305672c13.143881-7.305552 30.246209-10.927761 51.24585-10.88191 14.779224 8.849194 31.95797 16.292299 51.520956 22.375164z m252.71403-272.720239l0.290388 0.305672c26.944955 23.200478 41.082269 46.370388 42.41194 69.479164-2.185552 24.224478-17.79009 49.442388-46.828896 75.699582-1.329672 1.283821-2.598209 2.674627-3.820895 4.126567l-2.934448 3.545791a151.231045 151.231045 0 0 1-7.351403 5.593791 198.824119 198.824119 0 0 1-52.43797 29.466747c-6.159284 1.788179-12.440836 3.561075-18.844657 5.288119a259.66806 259.66806 0 0 1-55.08203 9.139582h-0.290388a244.720716 244.720716 0 0 1-73.34591-5.899463l-2.063284-0.580776a481.417552 481.417552 0 0 1-10.606806-2.063283c-3.515224-1.130985-6.969313-2.292537-10.301134-3.545791 13.541254-7.458388 25.309612-17.759522 35.335642-30.918687a4.096 4.096 0 0 1 0.611343-0.871164c13.052179-17.392716 21.504-38.31594 25.309612-62.723821 8.085015 3.362388 19.868657 8.467104 35.350925 15.298866 10.362269 4.600358 20.755104 4.890746 31.224359 0.901731a39.217672 39.217672 0 0 0 22.375164-21.519284 39.33994 39.33994 0 0 0 0.901731-31.224358 39.33994 39.33994 0 0 0-21.504-22.35988c-35.901134-15.940776-57.603821-24.392597-65.092776-25.340179a53.599522 53.599522 0 0 0-3.820895-0.305672 121.871284 121.871284 0 0 0-4.416956-0.305672l-0.596059-2.048-0.305672-1.467224a218.188418 218.188418 0 0 0-18.554269-42.427223c81.385075-22.680836 149.504-11.111164 204.387344 34.754865zM291.488478 808.440358l-0.305672-0.305671c-30.781134-41.540776-41.372657-74.904836-31.820418-100.13803 5.272836-9.934328 6.266269-20.250746 2.949731-30.918687a39.538627 39.538627 0 0 0-19.731104-24.132776 38.896716 38.896716 0 0 0-30.918687-2.934448 39.829015 39.829015 0 0 0-24.148059 19.715821 106.159761 106.159761 0 0 0-15.894926 47.715343c-30.307343-9.00203-50.924896-27.235343-61.852656-54.791641l0.290388 0.305671c-17.239881-51.291701-22.925373-102.231881-17.087045-152.835821v-0.305671c6.464955-51.612657 20.418866-98.930627 41.831164-141.969194l0.290388-0.275105c19.318448-39.477493 43.64991-60.400716 73.040239-62.739104 7.183284 0.962866 14.534687 4.294687 22.084776 10.010746a1037.220299 1037.220299 0 0 0-16.490985 65.383164 39.355224 39.355224 0 0 0 5.593791 30.628299 39.095403 39.095403 0 0 0 25.324896 17.973492 39.217672 39.217672 0 0 0 30.628298-5.593791 39.171821 39.171821 0 0 0 17.958209-25.340179c26.043224-118.952119 65.215045-200.428896 117.515463-244.445612l0.305671-0.305671c50.038448-40.74603 94.131582-61.86794 132.233553-63.319881 54.348418 0.825313 104.402149 25.17206 150.207044 73.055522a311.983761 311.983761 0 0 1 21.794388 25.034508l0.580776 0.871164c0.825313 1.146269 1.696478 2.231403 2.659344 3.240119 16.154746 20.586985 27.43403 40.730746 33.868418 60.37015l-0.305672-1.467224c1.925731 6.801194 3.408239 13.571821 4.416955 20.31188a11.982328 11.982328 0 0 0 0 1.482508c0.336239 3.683343 0.550209 7.504239 0.59606 11.47797-0.015284 18.890507-4.141851 34.510328-12.379702 46.813612l0.580777-0.580776c-7.091582 9.322985-17.102328 13.73994-30.032239 13.250865a63.778388 63.778388 0 0 1-17.087045-2.063283l-0.886448-0.305672h-0.305671c-12.135164-4.126567-23.521433-11.600239-34.158806-22.35988h-0.290388a3480.835821 3480.835821 0 0 0-57.145314-55.693374 39.844299 39.844299 0 0 0-7.061015-10.88191 39.416358 39.416358 0 0 0-25.920955-13.250866 39.523343 39.523343 0 0 0-28.274627 7.366687 39.767881 39.767881 0 0 0-15.910209 24.438448c-4.248836 14.519403-1.986866 34.235224 6.770627 59.208597l0.305672 0.596059c4.325254 11.798925 6.770627 20.434149 7.366686 25.905672-0.779463 25.309612-11.157015 51.520955-31.224358 78.649313l-0.305672 0.275105c-18.905791 24.820537-38.453493 39.278806-58.612537 43.298388a39.141254 39.141254 0 0 0-26.807403 15.604537 39.248239 39.248239 0 0 0-8.237851 30.047523 39.095403 39.095403 0 0 0 15.604538 26.807403c8.925612 6.877612 18.936358 9.64394 30.062806 8.23785 35.824716-3.362388 69.677851-23.674269 101.605253-60.950925a147.792239 147.792239 0 0 0-0.901731 16.475702c0 23.353313 4.202985 45.239403 12.67009 65.688835-2.903881 1.650627-5.746627 3.438806-8.558806 5.303403-33.761433 20.556418-50.634507 53.813493-50.649791 99.832359-0.061134 4.493373 0.030567 8.910328 0.305671 13.250865-25.844537 3.49994-47.837612 16.643821-65.96394 39.477493l-0.290388 0.290388c-19.24203 23.154627-28.855403 52.392119-28.870687 87.773612a117.270925 117.270925 0 0 0 2.64406 26.501731c-60.217313 4.722627-104.799522-10.209433-133.654925-44.765612z m346.937313 130.185552c-31.025672-0.672478-61.164896-14.137313-90.432955-40.36394v0.305672c-12.92991-11.798925-23.231045-23.399164-30.918687-34.739582l-0.580776-0.901732a36.48191 36.48191 0 0 0-1.482507-2.063283c-7.106866-11.47797-10.83606-22.864239-11.187582-34.158806-0.015284-14.71809 3.606925-27.021373 10.912477-36.802866l0.290388-0.305672c4.951881-6.281552 11.05003-9.628657 18.263881-10.010746 1.83403-0.030567 3.316537-0.030567 4.416955 0 0.657194 0.259821 1.344955 0.550209 2.063284 0.871164 2.307821 1.176836 4.676776 2.154985 7.076298 2.949732 15.390567 21.71797 36.894567 41.158687 64.496717 58.322149l0.305671 0.275104c34.00597 20.648119 69.937672 34.097672 107.795105 40.363941 0.932299 1.390806 2.017433 2.751045 3.240119 4.126567l-0.290388 0.305672c-0.38209 12.914627-5.884179 24.086925-16.506269 33.562746-15.589254 11.539104-37.872716 17.62197-66.850388 18.279164h-0.611343v-0.015284z" /></svg>