<?xml version="1.0" standalone="no"?><!DOCTYPE svg PUBLIC "-//W3C//DTD SVG 1.1//EN" "http://www.w3.org/Graphics/SVG/1.1/DTD/svg11.dtd"><svg t="1576662300335" class="icon" viewBox="0 0 1024 1024" version="1.1" xmlns="http://www.w3.org/2000/svg" p-id="2490" width="128" height="128" xmlns:xlink="http://www.w3.org/1999/xlink"><defs><style type="text/css"></style></defs><path d="M246.879973 948.738472a233.860496 75.261528 0 1 0 467.720993 0 233.860496 75.261528 0 1 0-467.720993 0Z" fill="#F4ECEE" p-id="2491"></path><path d="M906.167467 579.407887a44.044615 29.576161 34.7 1 0 33.674206-48.631729 44.044615 29.576161 34.7 1 0-33.674206 48.631729Z" fill="#FFCFC1" p-id="2492"></path><path d="M740.194416 400.52017m13.69263 7.905444l162.687637 93.927751q13.69263 7.905444 5.787187 21.598073l-14.020976 24.285042q-7.905444 13.69263-21.598074 5.787187l-162.687637-93.927751q-13.69263-7.905444-5.787186-21.598074l14.020976-24.285042q7.905444-13.69263 21.598073-5.787186Z" fill="#D31846" p-id="2493"></path><path d="M927.634145 507.035948m9.208384 6.352438l0 0q9.208384 6.352439 2.855946 15.560823l-25.809052 37.41235q-6.352439 9.208384-15.560823 2.855945l0 0q-9.208384-6.352439-2.855945-15.560823l25.809051-37.412349q6.352439-9.208384 15.560823-2.855946Z" fill="#F4ECEE" p-id="2494"></path><path d="M785.132013 556.321625c-32.23972 150.714833-158.321958 259.302813-316.835692 259.302813S172.769103 695.679041 172.769103 537.143999s141.275179-308.312302 299.788913-308.312303 312.573997 168.976194 312.573997 327.489929z" fill="#EF2E5D" p-id="2495"></path><path d="M642.919261 764.974197c-28.297653 20.498751-47.730981 27.338771-93.224571 40.997503L297.913767 764.974197h345.005494z" fill="#BE113B" p-id="2496"></path><path d="M701.112702 716.667887L220.755785 690.373231a287.664392 287.664392 0 0 0 77.157982 74.579657h345.005494a316.111204 316.111204 0 0 0 58.193441-48.285001z" fill="#6E1329" p-id="2497"></path><path d="M859.392043 662.863992l-489.455635-88.025304v-19.731646l-37.630765-13.701349 142.10621-312.573997c163.393374-0.83103 392.459464 231.900117 384.98019 434.032296z" fill="#D31846" p-id="2498"></path><path d="M559.986682 335.778925a121.777926 121.777926 0 0 1 23.972033 2.386549v237.078075a120.925587 120.925587 0 1 1-23.972033-239.464624z" fill="#FFFFFF" p-id="2499"></path><path d="M394.846013 335.778925a121.628766 121.628766 0 0 0-23.972033 2.386549v237.078075a120.925587 120.925587 0 1 0 23.972033-239.464624z" fill="#FFFFFF" p-id="2500"></path><path d="M590.329948 274.00566h-223.738971l-36.203096 267.421342h291.926086l-31.984019-267.421342z" fill="#FFFFFF" p-id="2501"></path><path d="M384.70318 319.79757m-50.074913 0a50.074913 50.074913 0 1 0 100.149825 0 50.074913 50.074913 0 1 0-100.149825 0Z" fill="#FFFFFF" p-id="2502"></path><path d="M569.319794 319.79757m-50.074913 0a50.074913 50.074913 0 1 0 100.149825 0 50.074913 50.074913 0 1 0-100.149825 0Z" fill="#FFFFFF" p-id="2503"></path><path d="M575.733644 121.927085m-28.34027 0a28.34027 28.34027 0 1 0 56.68054 0 28.34027 28.34027 0 1 0-56.68054 0Z" fill="#F4ECEE" p-id="2504"></path><path d="M530.090894 100.533378m-49.350425 0a49.350425 49.350425 0 1 0 98.700849 0 49.350425 49.350425 0 1 0-98.700849 0Z" fill="#D31846" p-id="2505"></path><path d="M478.652239 167.974696m-105.604794 0a105.604794 105.604794 0 1 0 211.209588 0 105.604794 105.604794 0 1 0-211.209588 0Z" fill="#EF2E5D" p-id="2506"></path><path d="M584.129183 328.874979l-105.626103-34.093557-105.327785 34.093557v-91.115032h210.953888v91.115032z" fill="#FFCFC1" p-id="2507"></path><path d="M455.788247 219.477277m24.1425 0l0.021309 0q24.1425 0 24.1425 24.1425l0 63.946729q0 24.1425-24.1425 24.1425l-0.021309 0q-24.1425 0-24.1425-24.1425l0-63.946729q0-24.1425 24.1425-24.1425Z" fill="#FE8E7C" p-id="2508"></path><path d="M366.292659 172.236391m6.69086 0l210.975196 0q6.690861 0 6.69086 6.690861l0 52.141834q0 6.690861-6.69086 6.690861l-210.975196 0q-6.690861 0-6.69086-6.690861l0-52.141834q0-6.690861 6.69086-6.690861Z" fill="#F4ECEE" p-id="2509"></path><path d="M584.129183 275.326785l-211.081738-25.570168v-11.99667h211.081738v37.566838z" fill="#231815" opacity=".25" p-id="2510"></path><path d="M479.142334 378.587648a127.083736 127.083736 0 0 1-50.820709 30.897286 126.977193 126.977193 0 0 0 100.320293 0.98019 126.955885 126.955885 0 0 1-49.499584-31.877476z" fill="#D7A08C" p-id="2511"></path><path d="M519.521891 706.013651L430.750791 701.048776l-1.235892 63.925421h89.772599l0.234393-58.960546z" fill="#FFB416" p-id="2512"></path><path d="M445.304478 813.983686h20.94623v73.514233h-20.94623zM522.718162 887.497919h-20.946229l-10.654237-73.514233 20.946229-2.130848 10.654237 75.645081z" fill="#D31846" p-id="2513"></path><path d="M674.050941 942.857333a308.972865 308.972865 0 0 0-183.828201-67.846179l2.450475 44.151157zM472.941568 875.586482a308.972865 308.972865 0 0 0-189.943732 66.823373l186.214749-21.478941z" fill="#6E1329" p-id="2514"></path><path d="M282.422507 398.702847l-2.770101 5.028799c-6.733478 12.337606-22.352589 29.704012-34.690195 22.949226L76.07125 323.633095c-12.337606-6.733478-16.897619-24.483436-10.142833-36.821042l2.748793-5.050109a25.570168 25.570168 0 0 1 34.75412-10.121524l168.784418 92.372232a25.570168 25.570168 0 0 1 10.206759 34.690195z" fill="#EF2E5D" p-id="2515"></path><path d="M122.566339 313.341102l-60.366905-10.654237 10.654237-176.860329h39.058432l10.654236 187.514566z" fill="#EF2E5D" p-id="2516"></path><path d="M111.720326 106.584984H74.174796A14.148826 14.148826 0 0 1 60.068587 92.478775V14.106209A14.148826 14.148826 0 0 1 74.174796 0h37.54553a14.148826 14.148826 0 0 1 14.10621 14.106209V88.21708c-4.666556 6.264691 2.258698 18.367904-14.10621 18.367904z" fill="#FFCFC1" p-id="2517"></path><path d="M64.159814 104.432828m10.078907 0l36.309639 0q10.078908 0 10.078908 10.078908l0 1.214583q0 10.078908-10.078908 10.078908l-36.309639 0q-10.078908 0-10.078907-10.078908l0-1.214583q0-10.078908 10.078907-10.078908Z" fill="#F4ECEE" p-id="2518"></path><path d="M104.342132 88.553235m4.19777-7.27075l23.03446-39.896855q4.197769-7.27075 11.468518-3.07298l1.476295 0.852339q7.27075 4.197769 3.07298 11.468519l-23.03446 39.896855q-4.197769 7.27075-11.468519 3.07298l-1.476294-0.852339q-7.27075-4.197769-3.07298-11.468519Z" fill="#FFCFC1" p-id="2519"></path><path d="M112.807058 141.275179L72.29965 134.967871l0.617946-8.203762h39.07974l0.809722 14.51107z" fill="#D31846" p-id="2520"></path><path d="M684.53471 949.441651a116.344265 37.438988 0 1 0 232.68853 0 116.344265 37.438988 0 1 0-232.68853 0Z" fill="#F4ECEE" p-id="2521"></path><path d="M679.761611 443.812885m121.096055 0l0.021309 0q121.096055 0 121.096054 121.096055l0 136.310304q0 121.096055-121.096054 121.096055l-0.021309 0q-121.096055 0-121.096055-121.096055l0-136.310304q0-121.096055 121.096055-121.096055Z" fill="#F0AA58" p-id="2522"></path><path d="M800.878975 649.695355v172.598635s0.362244-54.485767 0.362244-121.096054v-136.37423c0-66.610288-66.972532-121.096055-0.362244-121.096055a121.458299 121.458299 0 0 1 121.096054 121.096055v106.542367z" fill="#E89648" p-id="2523"></path><path d="M964.690635 302.954706m-7.563818 7.563818l-82.14728 82.14728q-7.563818 7.563818-15.127635 0l-2.727194-2.727193q-7.563818-7.563818 0-15.127636l82.14728-82.14728q7.563818-7.563818 15.127636 0l2.727193 2.727194q7.563818 7.563818 0 15.127635Z" fill="#6E1329" p-id="2524"></path><path d="M909.540113 345.815619m-7.563818-7.563818l-51.816672-51.816672q-7.563818-7.563818 0-15.127635l2.727193-2.727193q7.563818-7.563818 15.127636 0l51.816672 51.816672q7.563818 7.563818 0 15.127635l-2.727194 2.727193q-7.563818 7.563818-15.127635 0Z" fill="#6E1329" p-id="2525"></path><path d="M879.703105 375.649613m-7.563817-7.563818l-51.816672-51.816672q-7.563818-7.563818 0-15.127635l2.727193-2.727194q7.563818-7.563818 15.127636 0l51.816671 51.816672q7.563818 7.563818 0 15.127636l-2.727193 2.727193q-7.563818 7.563818-15.127635 0Z" fill="#6E1329" p-id="2526"></path><path d="M942.75009 316.885978m-7.563818-7.563818l-53.94117-53.94117q-7.563818-7.563818 0-15.127636l2.727193-2.727193q7.563818-7.563818 15.127636 0l53.94117 53.94117q7.563818 7.563818 0 15.127636l-2.727193 2.727193q-7.563818 7.563818-15.127636 0Z" fill="#6E1329" p-id="2527"></path><path d="M663.558681 285.095938m7.563818 7.563818l82.14728 82.14728q7.563818 7.563818 0 15.127635l-2.727193 2.727194q-7.563818 7.563818-15.127636 0l-82.14728-82.14728q-7.563818-7.563818 0-15.127636l2.727194-2.727193q7.563818-7.563818 15.127635 0Z" fill="#6E1329" p-id="2528"></path><path d="M683.016296 327.971167m7.563817-7.563818l51.816672-51.816672q7.563818-7.563818 15.127636 0l2.727193 2.727193q7.563818 7.563818 0 15.127636l-51.816672 51.816672q-7.563818 7.563818-15.127635 0l-2.727194-2.727194q-7.563818-7.563818 0-15.127635Z" fill="#6E1329" p-id="2529"></path><path d="M712.845145 357.804278m7.563818-7.563818l51.816672-51.816672q7.563818-7.563818 15.127635 0l2.727193 2.727193q7.563818 7.563818 0 15.127636l-51.816672 51.816672q-7.563818 7.563818-15.127635 0l-2.727193-2.727194q-7.563818-7.563818 0-15.127635Z" fill="#6E1329" p-id="2530"></path><path d="M649.799408 299.017783m7.563818-7.563818l53.941171-53.94117q7.563818-7.563818 15.127635 0l2.727193 2.727193q7.563818 7.563818 0 15.127636l-53.94117 53.94117q-7.563818 7.563818-15.127636 0l-2.727193-2.727193q-7.563818-7.563818 0-15.127636Z" fill="#6E1329" p-id="2531"></path><path d="M748.928916 406.352589a55.870817 55.870817 0 0 0-5.30581-23.801565l-96.143832 55.508573 3.302814 5.689363a56.190444 56.190444 0 0 0 98.146828-37.396371z" fill="#F0AA58" p-id="2532"></path><path d="M946.373231 449.694024a56.062594 56.062594 0 0 0 16.940237-17.558182l-99.318795-49.584818-2.940569 5.881138a56.190444 56.190444 0 0 0 85.233893 61.261862z" fill="#D98955" p-id="2533"></path><path d="M702.582987 362.563676m101.215248 0l0 0q101.215249 0 101.215249 101.215249l0 83.103046q0 101.215249-101.215249 101.215249l0 0q-101.215249 0-101.215248-101.215249l0-83.103046q0-101.215249 101.215248-101.215249Z" fill="#FCD38B" p-id="2534"></path><path d="M793.207924 485.236557a40.76311 24.589978 0 1 0 81.526219 0 40.76311 24.589978 0 1 0-81.526219 0Z" fill="#EEB678" p-id="2535"></path><path d="M795.679707 486.834693m1.385051 0l7.607125 0q1.385051 0 1.385051 1.385051l0 158.513734q0 1.385051-1.385051 1.38505l-7.607125 0q-1.385051 0-1.385051-1.38505l0-158.513734q0-1.385051 1.385051-1.385051Z" fill="#E1A967" p-id="2536"></path><path d="M760.115865 468.402863a40.76311 24.589978 0 1 0 81.526219 0 40.76311 24.589978 0 1 0-81.526219 0Z" fill="#EF2E5D" p-id="2537"></path><path d="M785.323789 457.855169a15.555186 6.349925 0 1 0 31.110371 0 15.555186 6.349925 0 1 0-31.110371 0Z" fill="#FFFFFF" p-id="2538"></path><path d="M787.53987 934.52572l-42.57433 14.915931 17.046779-133.881138h25.527551v118.965207zM814.218079 934.52572l42.57433 14.915931-17.046779-133.881138h-25.527551v118.965207z" fill="#6E1329" p-id="2539"></path></svg>