<?xml version="1.0" standalone="no"?><!DOCTYPE svg PUBLIC "-//W3C//DTD SVG 1.1//EN" "http://www.w3.org/Graphics/SVG/1.1/DTD/svg11.dtd"><svg t="1576903916455" class="icon" viewBox="0 0 1024 1024" version="1.1" xmlns="http://www.w3.org/2000/svg" p-id="14140" width="16" height="16" xmlns:xlink="http://www.w3.org/1999/xlink"><defs><style type="text/css"></style></defs><path d="M531.038815 1024c79.454815 0 141.236148-15.739259 185.306074-47.217778 25.41037-18.166519 91.704889 9.291852 145.749333-37.167407C926.416593 948.148148 1005.037037 834.37037 977.389037 796.444444c-7.812741-50.555259-21.504-88.481185-41.073778-113.777777 0-75.851852-9.898667-189.62963-74.221037-227.555556H145.066667c-71.300741 37.925926-86.660741 101.148444-86.660741 151.703704 0 50.555259 1.630815 101.148444-25.751704 151.703704-27.382519 75.851852-13.691259 126.407111 41.073778 151.703703 16.080593 25.296593 51.01037 33.98163 104.789333 26.055111 37.736296 33.223111 96.900741 40.504889 133.423408 33.223111C379.638519 1005.795556 452.683852 1024 531.038815 1024z" fill="#F9F9F9" p-id="14141"></path><path d="M170.666667 417.185185m75.851852 0l493.037037 0q75.851852 0 75.851851 75.851852l0 303.407407q0 75.851852-75.851851 75.851852l-493.037037 0q-75.851852 0-75.851852-75.851852l0-303.407407q0-75.851852 75.851852-75.851852Z" fill="#FFE1B0" p-id="14142"></path><path d="M56.888889 265.481481m75.851852 0l720.592592 0q75.851852 0 75.851852 75.851852l0 37.925926q0 75.851852-75.851852 75.851852l-720.592592 0q-75.851852 0-75.851852-75.851852l0-37.925926q0-75.851852 75.851852-75.851852Z" fill="#F2F2F2" p-id="14143"></path><path d="M132.740741 265.481481C183.296 88.974222 303.066074 0.493037 492.050963 0 704.967111 0 838.011259 29.50637 891.259259 88.481185V147.531852c-44.525037 15.928889-69.859556 39.822222-75.965629 71.68-2.578963 13.539556 42.780444 28.975407 42.780444 46.307555H132.740741z" fill="#FF6464" p-id="14144"></path><path d="M910.222222 94.814815m-94.814815 0a94.814815 94.814815 0 1 0 189.62963 0 94.814815 94.814815 0 1 0-189.62963 0Z" fill="#F2F2F2" p-id="14145"></path><path d="M476.615111 733.221926c-165.925926-25.258667-276.555852-12.629333-331.851852 37.925926-83.019852 75.851852 290.360889 37.925926 331.851852 0 27.685926-25.258667 27.685926-37.925926 0-37.925926zM532.745481 733.221926c165.963852-25.258667 276.593778-12.629333 331.889778 37.925926 82.981926 75.851852-290.398815 37.925926-331.889778 0-27.685926-25.258667-27.685926-37.925926 0-37.925926z" fill="#F9F9F9" p-id="14146"></path><path d="M436.148148 530.962963m56.888889 0l0 0q56.888889 0 56.888889 56.888889l0 113.777778q0 56.888889-56.888889 56.888889l0 0q-56.888889 0-56.888889-56.888889l0-113.777778q0-56.888889 56.888889-56.888889Z" fill="#ECBD71" p-id="14147"></path><path d="M398.222222 644.740741m37.925926 0l113.777778 0q37.925926 0 37.925926 37.925926l0 0q0 37.925926-37.925926 37.925926l-113.777778 0q-37.925926 0-37.925926-37.925926l0 0q0-37.925926 37.925926-37.925926Z" fill="#ECBD71" p-id="14148"></path><path d="M322.37037 568.888889m-37.925926 0a37.925926 37.925926 0 1 0 75.851852 0 37.925926 37.925926 0 1 0-75.851852 0Z" fill="#8F754B" p-id="14149"></path><path d="M663.703704 568.888889m-37.925926 0a37.925926 37.925926 0 1 0 75.851852 0 37.925926 37.925926 0 1 0-75.851852 0Z" fill="#8F754B" p-id="14150"></path></svg>