<?xml version="1.0" standalone="no"?><!DOCTYPE svg PUBLIC "-//W3C//DTD SVG 1.1//EN" "http://www.w3.org/Graphics/SVG/1.1/DTD/svg11.dtd"><svg class="icon" width="48px" height="37.15px" viewBox="0 0 1323 1024" version="1.1" xmlns="http://www.w3.org/2000/svg"><path fill="#ffffff" d="M1039.312738 908.933908c2.898708-16.856615 2.552123-32.704985-0.992492-47.608123 22.102646-0.6144 44.268308-1.6384 66.418216-3.15077h0.236307c32.783754-2.772677 59.959138-16.273723 81.526154-40.518892 22.291692-24.969846 32.295385-54.004185 30.026831-87.150277-1.748677-26.151385-10.791385-48.915692-27.096616-68.355938 12.382523-1.701415 20.763569-3.434338 25.143139-5.12l0.488369-0.236308c34.563938-12.886646 61.014646-35.178338 79.320616-66.875077l0.252061-0.236308c20.133415-34.311877 21.504-71.4752 4.159015-111.568738v0.267815c-16.1792-40.770954-51.247262-65.504492-105.219938-74.200615h0.488369c-7.876923-1.512369-16.5888-2.630892-26.104123-3.434339a106.968615 106.968615 0 0 0 6.333046-11.484553l0.252062-0.48837c13.390769-29.522708 14.918892-59.707077 4.647384-90.553107-0.094523-0.189046-0.173292-0.441108-0.267815-0.724677-11.169477-30.751508-30.861785-53.468554-59.061169-68.103877h0.252061c-24.591754-13.973662-58.998154-18.936123-103.250707-14.887385V214.252308c-32.137846 2.615138-165.320862 31.807015-399.580554 87.622892l1.953477-3.418585v0.252062c16.888123-28.624738 29.822031-60.100923 38.801723-94.475815l-0.236308 0.252061c10.696862-38.360615 6.931692-79.289108-11.232492-122.753969-21.110154-51.593846-60.636554-73.743754-118.642216-66.402462h-0.236307c-55.863138 5.498092-91.970954 42.519631-108.370708 111.064616-10.318769 43.701169-20.574523 72.656738-30.767261 86.898215l-0.220554 0.252062c-11.295508 12.823631-29.774769 26.497969-55.422031 41.007261a3.465846 3.465846 0 0 0-0.488369 0.236308c-36.690708 20.007385-65.252431 50.443815-85.669416 91.293538v-0.252061a342.6304 342.6304 0 0 0-16.368246 37.100307c-20.338215-13.185969-38.077046-19.140923-53.200738-17.801846-50.475323-2.000738-90.852431 27.868554-121.068308 89.57637l0.236308-0.252062c-21.283446 42.031262-35.115323 88.646892-41.495631 139.8784v0.252062c-6.207015 51.719877-0.504123 103.6288 17.077169 155.726769l0.236308 0.252061c19.692308 61.408492 69.159385 93.404554 148.401231 95.92517a31.980308 31.980308 0 0 0 11.720861-1.685662c67.190154 118.216862 201.775262 151.977354 403.708062 101.297231a1462.949415 1462.949415 0 0 0 314.651569 65.157907h0.236308c30.578215 2.930215 58.415262-5.608369 83.47963-25.631507 25.127385-20.212185 40.093538-45.733415 44.945723-76.689723zM608.240246 878.907077a32.988554 32.988554 0 0 0-19.282708-0.488369c-198.4512 51.956185-319.424985 8.995446-362.952861-128.882216a32.515938 32.515938 0 0 0-16.116185-20.007384 32.452923 32.452923 0 0 0-25.615754-2.709662 32.421415 32.421415 0 0 0-20.023138 16.116185 32.295385 32.295385 0 0 0-2.693908 25.615754c0.834954 3.024738 1.732923 6.033723 2.693908 9.042707-34.752985-5.056985-57.611815-21.393723-68.592246-49.057477l0.252061 0.252062c-14.288738-42.220308-19.014892-84.298831-14.162707-126.219815 5.3248-43.134031 16.888123-82.439877 34.658461-117.854524l0.252062-0.267815c16.005908-32.704985 36.170831-50.049969 60.542031-52.003446 8.664615 1.669908 20.212185 8.507077 34.658461 20.527261-0.866462 4.946708-1.575385 9.909169-2.205538 14.871631-1.150031 9.216 1.134277 17.486769 6.837169 24.891077 5.750154 7.325538 13.233231 11.563323 22.449231 12.713354a32.547446 32.547446 0 0 0 24.90683-6.852923c7.309785-5.7344 11.547569-13.217477 12.6976-22.449231 4.379569-35.698215 14.462031-68.891569 30.263139-99.595815v-0.252062c13.973662-27.963077 33.429662-48.884185 58.336492-62.716061l0.488369-0.252062c35.099569-19.802585 59.990646-38.864738 74.688985-57.107692l0.252062-0.252062c15.753846-17.770338 30.483692-55.784369 44.189538-113.99483 8.318031-34.879015 25.489723-54.823385 51.499323-59.8016h0.252062c23.236923-2.993231 39.258585 5.466585 48.080738 25.3952 11.752369 28.104862 14.525046 54.555569 8.286523 79.336369l-0.252061 0.236307c-7.278277 28.136369-17.770338 53.925415-31.491939 77.382893v0.252061c-16.856615 28.8768-27.191138 54.429538-30.987815 76.642462a18.621046 18.621046 0 0 0-0.488369 1.953477 38.912 38.912 0 0 0-0.48837 3.906954c-0.756185 10.744123-0.425354 30.846031 0.976739 60.321477v0.472615c0.866462 23.158154-6.301538 52.192492-21.472493 87.134523h-0.236307c-15.438769 34.170092-44.977231 61.928369-88.615385 83.227569a32.768 32.768 0 0 0-17.077169 19.282708 32.185108 32.185108 0 0 0 1.465108 25.647261c4.080246 8.333785 10.523569 14.052431 19.282707 17.092924a32.169354 32.169354 0 0 0 25.631508-1.480862c60.526277-29.459692 100.9664-68.418954 121.304615-116.909292h-0.236307c20.511508-46.851938 29.617231-85.984492 27.332923-117.413416v-0.472615a1015.225108 1015.225108 0 0 1-0.992493-28.073354c251.100554-60.053662 393.168738-91.5456 426.173047-94.475815v-0.252062c28.010338-2.4576 49.892431 0.047262 65.66203 7.561846h0.267816c12.571569 6.742646 21.440985 16.982646 26.592492 30.767262l0.267815 0.708923a54.539815 54.539815 0 0 1-2.205538 40.030523l-0.252062 0.504123a48.080738 48.080738 0 0 1-27.332923 24.906831l0.252062-0.267816a1049.473969 1049.473969 0 0 1-61.0304 20.023139l-1.937723 0.488369c-3.198031 1.118523-12.0832 3.796677-26.608246 8.065969a17.801846 17.801846 0 0 0-2.205539 0.48837c-70.435446 20.543015-164.407138 39.668185-281.930831 57.359753a32.594708 32.594708 0 0 0-22.197169 13.170216 32.610462 32.610462 0 0 0-6.112492 25.158892c1.339077 9.137231 5.7344 16.462769 13.185969 21.992369a32.279631 32.279631 0 0 0 24.891077 6.096739c120.832-18.0224 217.576369-37.557169 290.217354-58.588554 76.327385-12.398277 133.025477-15.501785 170.125785-9.279015h0.504123c26.765785 4.285046 44.756677 15.690831 53.941169 34.170092v0.236308c8.018708 18.510769 7.766646 35.682462-0.740431 51.53083l0.252062-0.267815a83.952246 83.952246 0 0 1-44.189539 37.352369c-24.576 7.7824-178.191754 18.368985-460.831508 31.744a31.822769 31.822769 0 0 0-24.1664 10.744123 32.5632 32.5632 0 0 0-9.026953 23.930093c0.330831 9.200246 3.812431 17.014154 10.492061 23.425969 6.648123 6.333046 14.5408 9.436554 23.678031 9.263261h1.2288c227.170462-3.576123 346.773662-5.671385 358.8096-6.333046h0.472615c14.462031-1.024 27.159631 3.024738 38.077046 12.193477l0.252062 0.236308c11.011938 9.688615 17.029908 21.756062 18.053908 36.155077a49.750646 49.750646 0 0 1-12.933908 37.824984c-9.609846 10.822892-21.740308 16.825108-36.359877 18.053908-22.874585 1.622646-45.733415 2.725415-68.592246 3.418585-16.194954 0.299323-32.894031 0.456862-50.034215 0.472615a28.089108 28.089108 0 0 0-4.883693 0c-82.691938-0.110277-177.624615-5.876185-284.861046-17.329231a32.342646 32.342646 0 0 0-24.654769 7.325539 32.3584 32.3584 0 0 0-12.445539 22.449231 32.263877 32.263877 0 0 0 7.325539 24.639015c5.797415 7.262523 13.296246 11.437292 22.464984 12.461292 105.125415 11.248246 198.782031 17.171692 280.938339 17.8176l0.488369 0.740431c7.136492 10.224246 9.578338 21.960862 7.325539 35.131077v0.267815c-2.300062 13.973662-9.121477 25.505477-20.511508 34.626954-10.665354 8.570092-22.464985 12.414031-35.383139 11.500308a1389.898831 1389.898831 0 0 1-308.806892-65.441477z" /></svg>