<?xml version="1.0" standalone="no"?><!DOCTYPE svg PUBLIC "-//W3C//DTD SVG 1.1//EN" "http://www.w3.org/Graphics/SVG/1.1/DTD/svg11.dtd"><svg class="icon" width="48px" height="32.57px" viewBox="0 0 1509 1024" version="1.1" xmlns="http://www.w3.org/2000/svg"><path fill="#ffffff" d="M35.76814 686.331509c23.749614 74.159158 83.464982 112.765754 179.2 115.801824a41.858246 41.858246 0 0 0 8.802807-0.592842c8.209965 12.449684 17.928982 24.432281 29.192983 35.98372 42.037895 43.493053 91.441404 65.104842 148.246456 64.817403 5.748772 0.125754 14.910877-0.862316 27.396491-2.928281 6.323649-1.024 10.347789-1.616842 12.108351-1.778526h3.233684c10.132211 18.899088 24.378386 37.834105 42.738527 56.876912l0.287438 0.287439c44.175719 46.04407 92.213895 68.625965 144.132491 67.781614 45.325474-0.197614 85.009965-12.844912 119.053474-38.013754 39.163509-28.797754 58.026667-62.284351 56.607439-100.49572v-2.065965c49.583158-1.652772 94.764912-14.910877 135.581193-39.774315l0.305403-0.323369c54.559439-34.223158 81.003789-75.973614 79.279158-125.251368a133.712842 133.712842 0 0 0-8.26386-49.241825c48.469333 9.090246 97.980632 16.922947 148.55186 23.58793 104.48393 13.707228 175.427368 17.623579 212.794386 11.784982a9.28786 9.28786 0 0 1 0.592842-0.305403c48.469333-7.509333 85.710596-34.528561 111.705825-81.039719l-0.305404 0.287438c27.414456-45.810526 26.839579-97.567439-1.778526-155.324631-23.120842-56.823018-97.980632-89.932351-224.579369-99.310035-1.473123-0.125754-2.964211-0.215579-4.419368-0.305404 88.459228-27.288702 142.30007-61.601684 161.504561-102.849123l0.305404-0.305403c30.899649-57.469754 35.103439-103.747368 12.683228-138.796913-18.270316-33.935719-45.666807-57.290105-82.225403-70.152982h0.574877c-31.133193-11.605333-66.577965-16.707368-106.406176-15.32407h-0.592842c-36.163368 0.323368-108.47214 19.096702-216.890386 56.266105-84.902175 29.067228-155.342596 57.361965-211.339228 84.902176-13.958737-25.061053-33.432702-50.571228-58.350035-76.620351C692.098246 37.708351 622.340491 5.030175 546.241123 5.748772 492.418246 4.329544 431.229754 31.366737 362.621754 86.806456c-40.636632 31.546386-74.590316 80.159439-102.004772 145.875088-16.527719-8.605193-33.127298-12.539509-49.780771-11.784983-60.847158-2.335439-109.783579 33.702175-146.773334 108.166737-25.150877 51.074246-41.570807 107.286456-49.223859 168.600702-7.868632 62.679579-0.898246 125.556772 20.929122 188.667509z m596.219509 156.474386h0.323369a346.291649 346.291649 0 0 0 86.626807 31.564351c1.652772 3.377404 3.790596 6.647018 6.485333 9.719017-1.401263 12.844912-9.269895 24.522105-23.58793 35.085474-20.210526 14.892912-43.762526 22.240561-70.745824 22.096842-30.486456-0.844351-58.978807-15.090526-85.477053-42.756491L545.342877 898.245614c-24.486175-25.384421-37.367018-50.14007-38.624561-74.302877 0-14.479719 3.610947-26.749754 10.904702-36.846035l0.287438-0.287439c4.976281-6.000281 11.048421-9.126175 18.288281-9.413614h6.772772c0.359298 0.07186 0.628772 0.179649 0.91621 0.305404h-1.185684c4.599018 2.263579 9.233965 3.646877 13.850947 4.113965 17.012772 23.066947 42.163649 43.385263 75.434667 60.990877zM137.14414 365.082947c19.617684-39.594667 44.175719-60.523789 73.692071-62.805333 7.185965 0.970105 14.569544 4.311579 22.096842 10.024421a1046.204632 1046.204632 0 0 0-16.52772 65.446176 39.343158 39.343158 0 0 0 5.623018 30.64814c6.036211 9.521404 14.497684 15.521684 25.330526 17.982877 10.940632 2.371368 21.198596 0.503018 30.666105-5.587088a39.486877 39.486877 0 0 0 18.000843-25.366456c26.103018-119.197193 65.410246-201.027368 117.867789-245.490526 50.10414-40.456982 94.208-61.386105 132.347509-62.805333 54.34386 0.826386 104.448 25.186807 150.312421 73.099228v-0.305404c29.085193 30.414596 48.631018 59.805193 58.637474 88.117895l0.323368 0.880281c3.054035 10.922667 4.670877 21.827368 4.706807 32.714105 0 18.719439-4.042105 34.025544-12.072421 45.990175-7.060211 9.126175-17.012772 13.455719-29.785825 12.952702-19.258386-0.485053-36.846035-8.551298-52.744982-24.144842a3302.130526 3302.130526 0 0 0-56.876912-55.421754 39.522807 39.522807 0 0 0-7.365614-11.802948 39.576702 39.576702 0 0 0-25.923369-13.258105 39.684491 39.684491 0 0 0-28.312702 7.365614 39.756351 39.756351 0 0 0-15.898947 24.46821c-4.311579 14.353965-2.137825 34.205193 6.449404 59.517755 0.251509 0.269474 0.413193 0.574877 0.592842 0.898245 4.347509 11.820912 6.808702 20.462035 7.365614 25.923369-0.736561 25.330526-11.33586 51.559298-31.81586 78.704281-18.845193 24.827509-38.498807 39.343158-58.942877 43.618807a38.98386 38.98386 0 0 0-26.534176 15.916912 39.756351 39.756351 0 0 0-7.958456 30.360702c1.616842 10.976561 6.916491 19.833263 15.934877 26.534175a39.792281 39.792281 0 0 0 30.342737 7.940491c40.061754-4.365474 77.410807-29.534316 111.993263-75.452631 24.072982-31.81586 39.199439-63.074807 45.361404-93.722948 28.672 23.013053 60.110596 34.312982 94.315789 33.89979 40.528842-0.395228 72.165053-15.521684 94.908632-45.379369l0.323368-0.592842c18.647579-24.180772 28.007298-55.637333 28.007299-94.315789a219.17193 219.17193 0 0 0-1.16772-22.977123c54.685193-27.701895 125.125614-56.28407 211.321264-85.764491 96.884772-33.324912 161.127298-50.714947 192.745543-52.18807h0.574878c28.348632-0.934175 53.589333 2.604912 75.758035 10.617263h0.592842a67.601965 67.601965 0 0 1 37.995789 32.426666c5.15593 15.126456 0.718596 35.642386-13.24014 61.601685l0.305403-0.269474c-21.000982 31.564351-79.746246 58.475789-176.253754 80.734316l0.305404-0.287439c-113.933474 25.815579-221.309754 54.379789-322.164772 85.764491a39.271298 39.271298 0 0 0-22.977123 18.557755 39.325193 39.325193 0 0 0-4.724772 29.175017c2.407298 10.27593 7.994386 18.414035 16.833123 24.486176a38.750316 38.750316 0 0 0 28.582175 7.06021c155.71986-21.917193 285.318737-29.264842 388.742737-22.096842 85.800421 6.341614 138.257965 24.324491 157.408561 53.930667 14.605474 29.534316 16.006737 55.906807 4.113965 79.297123l-0.305403 0.287438c-12.503579 22.671719-30.306807 36.127439-53.337825 40.385123l0.574877-0.323368c-33.342877 4.383439-96.830877 0.449123-190.39214-11.767018-96.615298-12.701193-189.350175-29.76786-278.204632-51.27186a164.917895 164.917895 0 0 0-25.959298-6.197894l-2.030035-0.305404c-3.628912-0.377263-7.473404-0.790456-11.515509-1.167719a39.037754 39.037754 0 0 0-29.767859 8.838737 39.199439 39.199439 0 0 0-14.713263 27.414456 39.037754 39.037754 0 0 0 8.820772 29.73193 39.343158 39.343158 0 0 0 27.414456 14.749193l8.838736 0.898245c0.682667 0.125754 1.365333 0.215579 2.065965 0.305404 3.269614 0.628772 6.503298 1.401263 9.719018 2.353403 0.898246 0.395228 1.868351 0.790456 2.946246 1.16772 14.551579 5.04814 28.384561 13.419789 41.552842 25.061052l0.305403 0.305404c18.054737 16.599579 27.468351 34.78007 28.294737 54.523509-1.706667 21.43214-15.342035 40.187509-40.977965 56.302035l0.323369-0.305404c-30.989474 18.952982-65.553965 28.366596-103.747369 28.294737-45.469193 0.089825-87.543018-9.934596-126.131649-30.073263h0.287439c-37.115509-19.635649-56.661333-44.409263-58.637474-74.266948-0.323368-11.246035 4.239719-19.402105 13.545544-24.486175l-0.287439 0.323368c13.653333-6.682947 31.438596-10.024421 53.337825-10.024421 7.581193 0.916211 23.51607 6.018246 47.750737 15.324071 0.287439 0.107789 0.556912 0.233544 0.88028 0.287438 23.552 9.683088 37.798175 16.060632 42.738527 19.150597a39.343158 39.343158 0 0 0 29.480421 10.024421 39.109614 39.109614 0 0 0 27.701894-14.120421 39.343158 39.343158 0 0 0 10.042386-29.480421 39.486877 39.486877 0 0 0-14.156351-27.701895c-6.754807-7.078175-28.779789-18.270316-66.039017-33.594386a6.341614 6.341614 0 0 1-0.880281-0.305404c-38.94793-14.928842-64.763509-21.881263-77.500631-20.929122-37.81614-0.03593-68.392421 6.449404-91.656983 19.456l-0.323368 0.305403c-36.917895 19.976982-55.547509 51.720982-55.996632 95.178105-30.073263 1.311439-55.33193 14.605474-75.722105 39.792281l-0.323369 0.323368c-18.072702 22.240561-27.68393 49.457404-28.869614 81.614597a399.719298 399.719298 0 0 0-10.042386 1.473123h-0.287438c-6.359579 1.077895-10.976561 1.670737-13.850947 1.778526-34.348912-0.269474-64.314386-13.635368-89.896422-40.061754-24.701754-25.294596-37.95986-53.984561-39.75635-86.05193a39.702456 39.702456 0 0 0-13.294035-28.294737 38.858105 38.858105 0 0 0-29.157053-10.617263 39.504842 39.504842 0 0 0-28.276772 13.24014 38.894035 38.894035 0 0 0-10.635228 29.175018c0.287439 6.808702 0.880281 13.491649 1.760561 20.066807-40.097684-6.539228-66.63186-26.103018-79.548631-58.655439-17.515789-50.894596-23.084912-101.555649-16.851088-152.072982 6.449404-51.900632 20.300351-99.453754 41.498947-142.677334z" /></svg>