<?xml version="1.0" standalone="no"?><!DOCTYPE svg PUBLIC "-//W3C//DTD SVG 1.1//EN" "http://www.w3.org/Graphics/SVG/1.1/DTD/svg11.dtd"><svg t="1576907244785" class="icon" viewBox="0 0 1024 1024" version="1.1" xmlns="http://www.w3.org/2000/svg" p-id="27057" xmlns:xlink="http://www.w3.org/1999/xlink" width="128" height="128"><defs><style type="text/css"></style></defs><path d="M632.7 882.5H324.3c-21.6 0-39.2-17.5-39.2-39.2V180.7c0-21.6 17.5-39.2 39.2-39.2h375.5c21.6 0 39.2 17.5 39.2 39.2v595.5c-0.1 58.7-47.6 106.3-106.3 106.3z" fill="#1F53CC" p-id="27058"></path><path d="M619.6 511.4H365.4c-25.6 0-46.3-20.7-46.3-46.3V237.8c0-25.6 20.7-46.3 46.3-46.3h293.1c25.6 0 46.3 20.7 46.3 46.3V426c0.1 47.2-38.1 85.4-85.2 85.4z" fill="#FECD44" p-id="27059"></path><path d="M385 229.3h253.9v244.3H385z" fill="#00F0D4" p-id="27060"></path><path d="M354.2 351.4m-8.2 0a8.2 8.2 0 1 0 16.4 0 8.2 8.2 0 1 0-16.4 0Z" fill="#FC355D" p-id="27061"></path><path d="M449.6 624.6h-34v-34c0-3.7-3-6.6-6.6-6.6h-29.7c-3.7 0-6.6 3-6.6 6.6v34h-34c-3.7 0-6.6 3-6.6 6.6v29.7c0 3.7 3 6.6 6.6 6.6h34v34c0 3.7 3 6.6 6.6 6.6H409c3.7 0 6.6-3 6.6-6.6v-34h34c3.7 0 6.6-3 6.6-6.6v-29.7c0-3.7-3-6.6-6.6-6.6z" fill="#00F0D4" p-id="27062"></path><path d="M433.5 624.6h-34v-34c0-3.7-3-6.6-6.6-6.6h-29.7c-3.7 0-6.6 3-6.6 6.6v34h-34c-3.7 0-6.6 3-6.6 6.6v29.7c0 3.7 3 6.6 6.6 6.6h34v34c0 3.7 3 6.6 6.6 6.6h29.7c3.7 0 6.6-3 6.6-6.6v-34h34c3.7 0 6.6-3 6.6-6.6v-29.7c0-3.7-2.9-6.6-6.6-6.6z" fill="#FECD44" p-id="27063"></path><path d="M594.6 663.8m-31 0a31 31 0 1 0 62 0 31 31 0 1 0-62 0Z" fill="#FECD44" p-id="27064"></path><path d="M581.6 663.8m-31 0a31 31 0 1 0 62 0 31 31 0 1 0-62 0Z" fill="#FC355D" p-id="27065"></path><path d="M677.2 627.6m-31 0a31 31 0 1 0 62 0 31 31 0 1 0-62 0Z" fill="#FECD44" p-id="27066"></path><path d="M664.2 627.6m-31 0a31 31 0 1 0 62 0 31 31 0 1 0-62 0Z" fill="#FC355D" p-id="27067"></path><path d="M507.6 746.9c-1.3-1.3-3-1.9-4.7-1.8h-19.6v9.9l-14.4 9.6-6.9 13.9h-10v10.1h20.4c1.5-0.1 3.1-0.7 4.2-1.8l30.9-30.9c2.5-2.6 2.5-6.6 0.1-9z" fill="#BBF0EA" p-id="27068"></path><path d="M447.9 786.7c-2.5-2.5-2.5-6.5 0-8.9l30.9-30.9c2.5-2.5 6.5-2.5 8.9 0 2.5 2.5 2.5 6.5 0 8.9l-30.9 30.9c-2.4 2.4-6.4 2.4-8.9 0z" fill="#00F0D4" p-id="27069"></path><path d="M574.5 746.9c-1.3-1.3-3-1.9-4.7-1.8h-19.6v9.9l-14.4 9.6-6.9 13.9h-10v10.1h20.4c1.5-0.1 3.1-0.7 4.2-1.8l30.9-30.9c2.6-2.6 2.6-6.6 0.1-9z" fill="#BBF0EA" p-id="27070"></path><path d="M514.9 786.7c-2.5-2.5-2.5-6.5 0-8.9l30.9-30.9c2.5-2.5 6.5-2.5 8.9 0 2.5 2.5 2.5 6.5 0 8.9l-30.9 30.9a6.4 6.4 0 0 1-8.9 0z" fill="#00F0D4" p-id="27071"></path></svg>